<svg xmlns="http://www.w3.org/2000/svg" width="23.427" height="21.475" viewBox="0 0 23.427 21.475">
  <path id="envelope" d="M18.547,1H4.881A4.887,4.887,0,0,0,0,5.881V17.594a4.887,4.887,0,0,0,4.881,4.881H18.547a4.887,4.887,0,0,0,4.881-4.881V5.881A4.887,4.887,0,0,0,18.547,1ZM4.881,2.952H18.547A2.928,2.928,0,0,1,21.26,4.794L13.785,12.27a2.935,2.935,0,0,1-4.143,0L2.167,4.794A2.928,2.928,0,0,1,4.881,2.952Zm13.666,17.57H4.881a2.928,2.928,0,0,1-2.928-2.928V7.345l6.31,6.306a4.888,4.888,0,0,0,6.9,0l6.31-6.306V17.594A2.928,2.928,0,0,1,18.547,20.523Z" transform="translate(0 -1)" fill="#6c757d"/>
</svg>
