<svg id="NRI" xmlns="http://www.w3.org/2000/svg" width="30" height="18" viewBox="0 0 30 18">
  <g id="Path_5627" data-name="Path 5627" fill="none">
    <path d="M5,0H25a5,5,0,0,1,5,5v8a5,5,0,0,1-5,5H5a5,5,0,0,1-5-5V5A5,5,0,0,1,5,0Z" stroke="none"/>
    <path d="M 5 1.5 C 3.070089340209961 1.5 1.5 3.070090293884277 1.5 5 L 1.5 13 C 1.5 14.92990970611572 3.070089340209961 16.5 5 16.5 L 25 16.5 C 26.92991065979004 16.5 28.5 14.92990970611572 28.5 13 L 28.5 5 C 28.5 3.070090293884277 26.92991065979004 1.5 25 1.5 L 5 1.5 M 5 0 L 25 0 C 27.76141929626465 0 30 2.238579750061035 30 5 L 30 13 C 30 15.76142024993896 27.76141929626465 18 25 18 L 5 18 C 2.238580703735352 18 0 15.76142024993896 0 13 L 0 5 C 0 2.238579750061035 2.238580703735352 0 5 0 Z" stroke="none" fill="#6c757d"/>
  </g>
  <path id="Path_5626" data-name="Path 5626" d="M.567,0V-6.3H1.809L4.941-2.232V-6.3H6.165V0H5.013L1.8-4.212V0ZM7.308,0V-6.3h3.078a2.474,2.474,0,0,1,1.13.247,1.873,1.873,0,0,1,.765.688,1.884,1.884,0,0,1,.274,1.017,1.761,1.761,0,0,1-.333,1.062,2,2,0,0,1-.891.684L12.726,0H11.268L10.035-2.412H8.613V0ZM8.613-3.483h1.656a1.03,1.03,0,0,0,.707-.234.777.777,0,0,0,.265-.612.777.777,0,0,0-.265-.612,1.03,1.03,0,0,0-.707-.234H8.613ZM13.419,0V-6.3h1.3V0Z" transform="translate(7 12)" fill="#6c757d"/>
</svg>
