<svg id="OTP-W" xmlns="http://www.w3.org/2000/svg" width="16" height="24" viewBox="0 0 16 24">
  <g id="smartphone" transform="translate(-4)">
    <path id="Path_5624" data-name="Path 5624" d="M15,0H9A5.006,5.006,0,0,0,4,5V19a5.006,5.006,0,0,0,5,5h6a5.006,5.006,0,0,0,5-5V5A5.006,5.006,0,0,0,15,0ZM9,2h6a3,3,0,0,1,3,3V16H6V5A3,3,0,0,1,9,2Zm6,20H9a3,3,0,0,1-3-3V18H18v1A3,3,0,0,1,15,22Z" fill="#fff"/>
    <circle id="Ellipse_207" data-name="Ellipse 207" cx="1" cy="1" r="1" transform="translate(11 19)" fill="#fff"/>
  </g>
  <path id="Path_5625" data-name="Path 5625" d="M1.312,1A1.26,1.26,0,0,1,.829.908a1.237,1.237,0,0,1-.4-.258A1.177,1.177,0,0,1,.168.264,1.2,1.2,0,0,1,.074-.211,1.138,1.138,0,0,1,.166-.686a1.2,1.2,0,0,1,.267-.386,1.237,1.237,0,0,1,.4-.258,1.26,1.26,0,0,1,.483-.092A1.281,1.281,0,0,1,1.8-1.33a1.194,1.194,0,0,1,.394.258,1.226,1.226,0,0,1,.263.386,1.177,1.177,0,0,1,.1.475,1.177,1.177,0,0,1-.1.475,1.226,1.226,0,0,1-.263.386A1.194,1.194,0,0,1,1.8.908,1.281,1.281,0,0,1,1.312,1Zm0-.446A.74.74,0,0,0,1.609.5.733.733,0,0,0,1.844.336.753.753,0,0,0,2,.094a.745.745,0,0,0,.055-.305A.793.793,0,0,0,2-.515a.755.755,0,0,0-.156-.242.72.72,0,0,0-.235-.161.782.782,0,0,0-.3-.062.761.761,0,0,0-.292.062.745.745,0,0,0-.235.161.741.741,0,0,0-.158.242.839.839,0,0,0-.06.3.883.883,0,0,0,.059.3A.683.683,0,0,0,.784.336.806.806,0,0,0,1.02.5.668.668,0,0,0,1.312.554ZM3.388.963l0-1.919-.8,0,0-.426H4.656l0,.429-.8,0L3.871.963Zm1.543,0V-1.385H6.109a.853.853,0,0,1,.408.094.7.7,0,0,1,.277.26.726.726,0,0,1,.1.384.7.7,0,0,1-.1.372.706.706,0,0,1-.278.258.856.856,0,0,1-.406.094H5.418V.963ZM5.418-.325h.637a.361.361,0,0,0,.253-.087.3.3,0,0,0,.1-.231.3.3,0,0,0-.1-.235.361.361,0,0,0-.253-.087H5.418Z" transform="translate(4.549 10)" fill="#fff"/>
</svg>
