<svg xmlns="http://www.w3.org/2000/svg" width="20.021" height="20.021" viewBox="0 0 20.021 20.021">
  <path id="phone-call" d="M10.869.835A.836.836,0,0,1,11.7,0,8.365,8.365,0,0,1,20.06,8.356a.836.836,0,1,1-1.671,0A6.692,6.692,0,0,0,11.7,1.671a.836.836,0,0,1-.836-.836ZM11.7,5.013a3.342,3.342,0,0,1,3.342,3.342.836.836,0,1,0,1.671,0A5.019,5.019,0,0,0,11.7,3.342a.836.836,0,1,0,0,1.671Zm7.6,8.973a2.59,2.59,0,0,1,0,3.658l-.76.877C11.7,25.073-4.954,8.424,1.5,1.559L2.457.723A2.574,2.574,0,0,1,6.073.757C6.1.783,7.647,2.794,7.647,2.794a2.59,2.59,0,0,1-.006,3.578L6.674,7.589a10.68,10.68,0,0,0,5.791,5.8l1.224-.973a2.59,2.59,0,0,1,3.577-.005S19.277,13.961,19.3,13.987ZM18.153,15.2s-2-1.538-2.025-1.564a.919.919,0,0,0-1.294,0C14.811,13.661,13.125,15,13.125,15a.836.836,0,0,1-.818.127,12.541,12.541,0,0,1-7.371-7.36.836.836,0,0,1,.121-.836S6.4,5.249,6.423,5.227a.919.919,0,0,0,0-1.294C6.4,3.908,4.859,1.907,4.859,1.907A.919.919,0,0,0,3.6,1.939l-.961.836c-4.714,5.669,9.717,19.3,14.685,14.605l.761-.877a.937.937,0,0,0,.071-1.3Z" transform="translate(-0.039 0.002)" fill="#6c757d"/>
</svg>
