<svg xmlns="http://www.w3.org/2000/svg" width="55.84" height="79.22" viewBox="0 0 55.84 79.22">
  <g id="sent" transform="translate(-15.739 -0.273)">
    <path id="Path_5500" data-name="Path 5500" d="M179.148,312.715c-.1-.292-.408-.283-.614-.412a2.97,2.97,0,0,1-1.545-2.607q-.034-6.265,0-12.53a3.092,3.092,0,0,1,6.183-.006q.04,6.265,0,12.53a2.978,2.978,0,0,1-1.814,2.753c-.168.083-.43.008-.5.271Z" transform="translate(-136.416 -233.222)" fill="#f26000"/>
    <path id="Path_5501" data-name="Path 5501" d="M119.154,336.453c-.1-.292-.408-.283-.614-.412a2.994,2.994,0,0,1-1.547-2.6q-.043-3.171,0-6.341a3.094,3.094,0,0,1,6.185-.006q.05,3.171,0,6.341a3,3,0,0,1-1.814,2.751c-.168.085-.43.01-.5.271Z" transform="translate(-88.828 -256.96)" fill="#f26000"/>
    <path id="Path_5502" data-name="Path 5502" d="M239.1,336.453c-.1-.292-.407-.283-.614-.412a2.994,2.994,0,0,1-1.547-2.6q-.043-3.171,0-6.341a3.094,3.094,0,0,1,6.186-.006q.05,3.171,0,6.341a3,3,0,0,1-1.814,2.751c-.168.083-.43.01-.5.271Z" transform="translate(-183.964 -256.96)" fill="#f26000"/>
    <path id="Path_5503" data-name="Path 5503" d="M112.856,54.162a9.337,9.337,0,0,1-14.034,7.4c-3.929-2.323-7.805-4.739-11.663-7.176a3.7,3.7,0,0,0-4.384-.029c-3.767,2.389-7.578,4.713-11.39,7.032a9.3,9.3,0,0,1-14.121-5.757,9.2,9.2,0,0,1,.621-5.962q7.46-17.343,14.9-34.693c1.158-2.7,2.3-5.4,3.473-8.089C77.907,3.118,80.789,1,84.916.989A8.894,8.894,0,0,1,93.6,6.836q9.247,21.445,18.436,42.914A10.347,10.347,0,0,1,112.856,54.162Zm-43.265,1c.2-.106.416-.2.61-.321Q74.949,51.925,79.689,49a9.312,9.312,0,0,1,10.5,0q5.663,3.491,11.33,6.978a3.99,3.99,0,0,0,1.86.7,3.175,3.175,0,0,0,2.9-4.659Q97.242,31.153,88.317,10.243c-.1-.23-.141-.5-.374-.662a3.059,3.059,0,0,0-4.26-2.164,3.613,3.613,0,0,0-1.82,2.1Q75.11,25.283,68.339,41.038C66.726,44.8,65.1,48.558,63.5,52.329A3.087,3.087,0,0,0,67.971,56.2C68.53,55.879,69.053,55.507,69.591,55.159Z" transform="translate(-41.278 -0.716)" fill="#141719"/>
    <path id="Path_5506" data-name="Path 5506" d="M177,115.967c0-1.959-.006-3.916,0-5.875a3.1,3.1,0,1,1,6.2-.017q.012,5.952,0,11.9a3.1,3.1,0,1,1-6.2.014C176.99,119.987,177,117.976,177,115.967Z" transform="translate(-136.436 -84.717)" fill="#f26000"/>
  </g>
</svg>
