<svg width="16" height="16" viewBox="0 0 16 16" fill="none" xmlns="http://www.w3.org/2000/svg">
<path d="M9.14 16H6.5C6.35333 16 6.22333 15.9533 6.11 15.86C5.99667 15.7667 5.92667 15.6467 5.9 15.5L5.58 13.48C5.32667 13.3867 5.06 13.26 4.78 13.1C4.5 12.94 4.25333 12.7733 4.04 12.6L2.18 13.46C2.03333 13.5267 1.88667 13.5367 1.74 13.49C1.59333 13.4433 1.48 13.3467 1.4 13.2L0.08 10.86C2.98023e-08 10.7267 -0.02 10.5867 0.02 10.44C0.06 10.2933 0.14 10.1733 0.26 10.08L1.98 8.82C1.95333 8.7 1.93667 8.56333 1.93 8.41C1.92333 8.25667 1.92 8.12 1.92 8C1.92 7.88 1.92333 7.74333 1.93 7.59C1.93667 7.43667 1.95333 7.3 1.98 7.18L0.26 5.92C0.14 5.82667 0.06 5.70667 0.02 5.56C-0.02 5.41333 2.98023e-08 5.27333 0.08 5.14L1.4 2.8C1.48 2.65333 1.59333 2.55667 1.74 2.51C1.88667 2.46333 2.03333 2.47333 2.18 2.54L4.04 3.4C4.25333 3.22667 4.5 3.06 4.78 2.9C5.06 2.74 5.32667 2.62 5.58 2.54L5.9 0.5C5.92667 0.353333 5.99667 0.233333 6.11 0.14C6.22333 0.0466666 6.35333 0 6.5 0H9.14C9.28667 0 9.41667 0.0466666 9.53 0.14C9.64333 0.233333 9.71333 0.353333 9.74 0.5L10.06 2.52C10.3133 2.61333 10.5833 2.73667 10.87 2.89C11.1567 3.04333 11.4 3.21333 11.6 3.4L13.46 2.54C13.6067 2.47333 13.7533 2.46333 13.9 2.51C14.0467 2.55667 14.16 2.65333 14.24 2.8L15.56 5.12C15.64 5.25333 15.6633 5.39667 15.63 5.55C15.5967 5.70333 15.5133 5.82667 15.38 5.92L13.66 7.14C13.6867 7.27333 13.7033 7.41667 13.71 7.57C13.7167 7.72333 13.72 7.86667 13.72 8C13.72 8.13333 13.7167 8.27333 13.71 8.42C13.7033 8.56667 13.6867 8.70667 13.66 8.84L15.38 10.08C15.5 10.1733 15.58 10.2933 15.62 10.44C15.66 10.5867 15.64 10.7267 15.56 10.86L14.24 13.2C14.16 13.3467 14.0467 13.4433 13.9 13.49C13.7533 13.5367 13.6067 13.5267 13.46 13.46L11.6 12.6C11.3867 12.7733 11.1433 12.9433 10.87 13.11C10.5967 13.2767 10.3267 13.4 10.06 13.48L9.74 15.5C9.71333 15.6467 9.64333 15.7667 9.53 15.86C9.41667 15.9533 9.28667 16 9.14 16ZM7.82 10.6C8.54 10.6 9.15333 10.3467 9.66 9.84C10.1667 9.33333 10.42 8.72 10.42 8C10.42 7.28 10.1667 6.66667 9.66 6.16C9.15333 5.65333 8.54 5.4 7.82 5.4C7.1 5.4 6.48667 5.65333 5.98 6.16C5.47333 6.66667 5.22 7.28 5.22 8C5.22 8.72 5.47333 9.33333 5.98 9.84C6.48667 10.3467 7.1 10.6 7.82 10.6ZM7.82 9.4C7.43333 9.4 7.10333 9.26333 6.83 8.99C6.55667 8.71667 6.42 8.38667 6.42 8C6.42 7.61333 6.55667 7.28333 6.83 7.01C7.10333 6.73667 7.43333 6.6 7.82 6.6C8.20667 6.6 8.53667 6.73667 8.81 7.01C9.08333 7.28333 9.22 7.61333 9.22 8C9.22 8.38667 9.08333 8.71667 8.81 8.99C8.53667 9.26333 8.20667 9.4 7.82 9.4ZM6.94 14.8H8.7L8.98 12.56C9.42 12.4533 9.83667 12.2867 10.23 12.06C10.6233 11.8333 10.98 11.56 11.3 11.24L13.42 12.16L14.22 10.72L12.34 9.34C12.3933 9.11333 12.4367 8.89 12.47 8.67C12.5033 8.45 12.52 8.22667 12.52 8C12.52 7.77333 12.5067 7.55 12.48 7.33C12.4533 7.11 12.4067 6.88667 12.34 6.66L14.22 5.28L13.42 3.84L11.3 4.76C10.9933 4.41333 10.6467 4.12333 10.26 3.89C9.87333 3.65667 9.44667 3.50667 8.98 3.44L8.7 1.2H6.94L6.66 3.44C6.20667 3.53333 5.78333 3.69333 5.39 3.92C4.99667 4.14667 4.64667 4.42667 4.34 4.76L2.22 3.84L1.42 5.28L3.3 6.66C3.24667 6.88667 3.20333 7.11 3.17 7.33C3.13667 7.55 3.12 7.77333 3.12 8C3.12 8.22667 3.13667 8.45 3.17 8.67C3.20333 8.89 3.24667 9.11333 3.3 9.34L1.42 10.72L2.22 12.16L4.34 11.24C4.66 11.56 5.01667 11.8333 5.41 12.06C5.80333 12.2867 6.22 12.4533 6.66 12.56L6.94 14.8Z" fill="black"/>
</svg>
