<svg width="15" height="16" viewBox="0 0 15 16" fill="none" xmlns="http://www.w3.org/2000/svg">
<path d="M13.003 15.0071C13.3295 14.8763 13.6089 14.6511 13.8046 14.3606C14.0004 14.0701 14.1033 13.7279 14.0999 13.3785V3.92591C14.0999 3.5284 14.0209 3.13482 13.8673 2.76762C13.7137 2.40043 13.4886 2.06686 13.2049 1.78592C12.9212 1.50499 12.5845 1.28219 12.214 1.1302C11.8435 0.978215 11.4464 0.9 11.0454 0.9H3.95458C3.14479 0.9 2.36797 1.21857 1.79506 1.78592C1.22213 2.35332 0.900073 3.12307 0.900073 3.92591V13.3785C0.896858 13.7282 1.00016 14.0706 1.19638 14.3612C1.39248 14.6515 1.67225 14.8765 1.99909 15.0069C2.3229 15.1438 2.68076 15.181 3.02615 15.1137C3.37175 15.0464 3.689 14.8775 3.93651 14.6289C3.93662 14.6288 3.93672 14.6287 3.93683 14.6286L7.50002 11.1183L11.0631 14.6263C11.0633 14.6264 11.0634 14.6265 11.0635 14.6266C11.2262 14.79 11.4198 14.9199 11.6333 15.0087C11.8469 15.0976 12.0762 15.1437 12.3079 15.1444H12.308C12.5465 15.1448 12.7828 15.0982 13.003 15.0071ZM13.003 15.0071C13.0031 15.007 13.0033 15.0069 13.0035 15.0068L12.9653 14.9144L13.0024 15.0073C13.0026 15.0072 13.0028 15.0071 13.003 15.0071ZM2.28188 13.3789V13.3791C2.28171 13.4567 2.30474 13.5326 2.34817 13.5973C2.39161 13.662 2.45356 13.7127 2.52629 13.7428C2.59903 13.7729 2.67919 13.781 2.75662 13.766C2.83404 13.751 2.9051 13.7136 2.96089 13.6587L7.01621 9.66725C7.01621 9.66725 7.01621 9.66725 7.01622 9.66724C7.14574 9.53974 7.32074 9.46835 7.50295 9.46835C7.68517 9.46835 7.86017 9.53974 7.98969 9.66725L7.98971 9.66727L12.0403 13.6576L2.28188 13.3789ZM2.28188 13.3789V3.92591C2.28188 3.48714 2.45787 3.06615 2.77146 2.7556C3.08508 2.44502 3.51064 2.27036 3.95458 2.27036H11.0466C11.4905 2.27036 11.9161 2.44502 12.2297 2.7556C12.5433 3.06615 12.7193 3.48715 12.7193 3.92591V13.3778L12.7193 13.378M2.28188 13.3789L12.7193 13.378M12.7193 13.378C12.7195 13.4555 12.6964 13.5314 12.653 13.5961C12.6096 13.6609 12.5476 13.7116 12.4749 13.7416C12.4021 13.7717 12.322 13.7798 12.2446 13.7648C12.1672 13.7498 12.0961 13.7124 12.0403 13.6576L12.7193 13.378Z" fill="#00DAB0" stroke="#00DAB0" stroke-width="0.2"/>
</svg>
