<svg width="17" height="18" viewBox="0 0 17 18" fill="none" xmlns="http://www.w3.org/2000/svg">
<path d="M17 7.19622C17 7.14434 16.9943 7.09262 16.983 7.042L16.0622 2.87173C15.8911 2.0802 15.454 1.37175 14.8241 0.865181C14.1942 0.358608 13.4099 0.0847102 12.6027 0.0894151H4.39733C3.59058 0.085364 2.80693 0.35956 2.17765 0.866079C1.54836 1.3726 1.11166 2.08068 0.940668 2.87173L0.017001 7.042C0.00567338 7.09262 -2.80924e-05 7.14434 9.6999e-07 7.19622V7.9069C-0.000570518 8.59881 0.251404 9.26698 0.708334 9.78522V13.5923C0.709459 14.5344 1.08296 15.4376 1.74691 16.1037C2.41085 16.7699 3.31104 17.1446 4.25 17.1457H12.75C13.689 17.1446 14.5891 16.7699 15.2531 16.1037C15.917 15.4376 16.2905 14.5344 16.2917 13.5923V9.78522C16.7486 9.26698 17.0006 8.59881 17 7.9069V7.19622ZM1.41667 7.27368L2.32333 3.18016C2.42607 2.70561 2.68814 2.28085 3.06568 1.97696C3.44321 1.67308 3.91332 1.5085 4.39733 1.51078H4.95833V3.64282C4.95833 3.8313 5.03296 4.01206 5.1658 4.14534C5.29864 4.27862 5.47881 4.3535 5.66667 4.3535C5.85453 4.3535 6.0347 4.27862 6.16753 4.14534C6.30037 4.01206 6.375 3.8313 6.375 3.64282V1.51078H10.625V3.64282C10.625 3.8313 10.6996 4.01206 10.8325 4.14534C10.9653 4.27862 11.1455 4.3535 11.3333 4.3535C11.5212 4.3535 11.7014 4.27862 11.8342 4.14534C11.967 4.01206 12.0417 3.8313 12.0417 3.64282V1.51078H12.6027C13.0867 1.5085 13.5568 1.67308 13.9343 1.97696C14.3119 2.28085 14.5739 2.70561 14.6767 3.18016L15.5833 7.27368V7.9069C15.5833 8.28387 15.4341 8.64539 15.1684 8.91195C14.9027 9.17851 14.5424 9.32826 14.1667 9.32826H13.4583C13.0826 9.32826 12.7223 9.17851 12.4566 8.91195C12.1909 8.64539 12.0417 8.28387 12.0417 7.9069C12.0417 7.71841 11.967 7.53765 11.8342 7.40437C11.7014 7.27109 11.5212 7.19622 11.3333 7.19622C11.1455 7.19622 10.9653 7.27109 10.8325 7.40437C10.6996 7.53765 10.625 7.71841 10.625 7.9069C10.625 8.28387 10.4757 8.64539 10.2101 8.91195C9.94439 9.17851 9.58406 9.32826 9.20833 9.32826H7.79167C7.41594 9.32826 7.05561 9.17851 6.78993 8.91195C6.52426 8.64539 6.375 8.28387 6.375 7.9069C6.375 7.71841 6.30037 7.53765 6.16753 7.40437C6.0347 7.27109 5.85453 7.19622 5.66667 7.19622C5.47881 7.19622 5.29864 7.27109 5.1658 7.40437C5.03296 7.53765 4.95833 7.71841 4.95833 7.9069C4.95833 8.28387 4.80908 8.64539 4.5434 8.91195C4.27773 9.17851 3.91739 9.32826 3.54167 9.32826H2.83333C2.45761 9.32826 2.09728 9.17851 1.8316 8.91195C1.56592 8.64539 1.41667 8.28387 1.41667 7.9069V7.27368ZM12.75 15.7244H4.25C3.68642 15.7244 3.14591 15.4998 2.7474 15.0999C2.34888 14.7001 2.125 14.1578 2.125 13.5923V10.6594C2.35634 10.7195 2.59436 10.7498 2.83333 10.7496H3.54167C3.94387 10.7498 4.34149 10.6639 4.70794 10.4976C5.0744 10.3313 5.40125 10.0884 5.66667 9.78522C5.93208 10.0884 6.25894 10.3313 6.62539 10.4976C6.99185 10.6639 7.38946 10.7498 7.79167 10.7496H9.20833C9.61054 10.7498 10.0082 10.6639 10.3746 10.4976C10.7411 10.3313 11.0679 10.0884 11.3333 9.78522C11.5987 10.0884 11.9256 10.3313 12.2921 10.4976C12.6585 10.6639 13.0561 10.7498 13.4583 10.7496H14.1667C14.4056 10.7498 14.6437 10.7195 14.875 10.6594V13.5923C14.875 14.1578 14.6511 14.7001 14.2526 15.0999C13.8541 15.4998 13.3136 15.7244 12.75 15.7244Z" fill="white"/>
</svg>
