<svg width="17" height="18" viewBox="0 0 17 18" fill="none" xmlns="http://www.w3.org/2000/svg">
<path d="M16.9833 17.1457H8.49599C6.83777 17.1449 5.21599 16.6575 3.83041 15.7435C2.44482 14.8295 1.35596 13.5289 0.697925 12.0018C0.0398915 10.4747 -0.158569 8.78779 0.126987 7.14893C0.412544 5.51007 1.16965 3.9908 2.30504 2.77825C3.44043 1.5657 4.90453 0.712831 6.517 0.324689C8.12946 -0.0634519 9.81987 0.0300877 11.38 0.593787C12.9402 1.15749 14.3019 2.16673 15.2975 3.49719C16.2931 4.82766 16.8791 6.42126 16.9833 8.08168V8.12646V17.1457ZM8.49599 1.51072C6.61737 1.51072 4.81569 2.25947 3.4873 3.59226C2.15891 4.92504 1.41263 6.73269 1.41263 8.61754C1.41263 10.5024 2.15891 12.31 3.4873 13.6428C4.81569 14.9756 6.61737 15.7244 8.49599 15.7244H15.5666V8.1492C15.4451 6.34998 14.6477 4.66403 13.3353 3.43185C12.0229 2.19968 10.2934 1.51308 8.49599 1.51072Z" fill="white"/>
<path d="M9.19142 5.06396H4.94141V6.48063H9.19142V5.06396Z" fill="white"/>
<path d="M12.0248 7.90674H4.94141V9.32341H12.0248V7.90674Z" fill="white"/>
<path d="M12.0248 10.7495H4.94141V12.1662H12.0248V10.7495Z" fill="white"/>
</svg>
