<svg width="18" height="18" viewBox="0 0 18 18" fill="none" xmlns="http://www.w3.org/2000/svg">
<path d="M9 17.3333C7.81944 17.3333 6.72222 17.1215 5.70833 16.6979C4.69444 16.2743 3.8125 15.6875 3.0625 14.9375C2.3125 14.1875 1.72569 13.3055 1.30208 12.2916C0.87847 11.2777 0.666664 10.1805 0.666664 8.99996C0.666664 7.83329 0.87847 6.74301 1.30208 5.72913C1.72569 4.71524 2.3125 3.83329 3.0625 3.08329C3.8125 2.33329 4.69444 1.74301 5.70833 1.31246C6.72222 0.881904 7.81944 0.666626 9 0.666626C10.1667 0.666626 11.2569 0.881904 12.2708 1.31246C13.2847 1.74301 14.1667 2.33329 14.9167 3.08329C15.6667 3.83329 16.2569 4.71524 16.6875 5.72913C17.1181 6.74301 17.3333 7.83329 17.3333 8.99996C17.3333 10.1805 17.1181 11.2777 16.6875 12.2916C16.2569 13.3055 15.6667 14.1875 14.9167 14.9375C14.1667 15.6875 13.2847 16.2743 12.2708 16.6979C11.2569 17.1215 10.1667 17.3333 9 17.3333ZM7.77083 12.7916L13.6667 6.89579L12.7083 5.95829L7.77083 10.8958L5.27083 8.39579L4.33333 9.33329L7.77083 12.7916Z" fill="#00DAB0"/>
</svg>
