<svg width="15" height="16" viewBox="0 0 15 16" fill="none" xmlns="http://www.w3.org/2000/svg">
<path d="M12.5 0H2.5C1.83696 0 1.20107 0.264266 0.732233 0.734661C0.263392 1.20506 0 1.84305 0 2.50829V10.0332C0 10.6984 0.263392 11.3364 0.732233 11.8068C1.20107 12.2772 1.83696 12.5415 2.5 12.5415H4.3125L7.09437 14.9011C7.20723 14.997 7.35028 15.0495 7.49813 15.0495C7.64597 15.0495 7.78902 14.997 7.90187 14.9011L10.6875 12.5415H12.5C13.163 12.5415 13.7989 12.2772 14.2678 11.8068C14.7366 11.3364 15 10.6984 15 10.0332V2.50829C15 1.84305 14.7366 1.20506 14.2678 0.734661C13.7989 0.264266 13.163 0 12.5 0ZM13.75 10.0332C13.75 10.3658 13.6183 10.6848 13.3839 10.92C13.1495 11.1552 12.8315 11.2873 12.5 11.2873H10.6875C10.3921 11.2874 10.1062 11.3925 9.88062 11.5839L7.5 13.6012L5.12063 11.5839C4.89473 11.3922 4.60837 11.2871 4.3125 11.2873H2.5C2.16848 11.2873 1.85054 11.1552 1.61612 10.92C1.3817 10.6848 1.25 10.3658 1.25 10.0332V2.50829C1.25 2.17567 1.3817 1.85667 1.61612 1.62148C1.85054 1.38628 2.16848 1.25415 2.5 1.25415H12.5C12.8315 1.25415 13.1495 1.38628 13.3839 1.62148C13.6183 1.85667 13.75 2.17567 13.75 2.50829V10.0332Z" fill="#6C757D"/>
<path d="M4.375 4.38526H7.5C7.66576 4.38526 7.82473 4.31941 7.94194 4.2022C8.05915 4.08499 8.125 3.92602 8.125 3.76025C8.125 3.59449 8.05915 3.43552 7.94194 3.31831C7.82473 3.2011 7.66576 3.13525 7.5 3.13525H4.375C4.20924 3.13525 4.05027 3.2011 3.93306 3.31831C3.81585 3.43552 3.75 3.59449 3.75 3.76025C3.75 3.92602 3.81585 4.08499 3.93306 4.2022C4.05027 4.31941 4.20924 4.38526 4.375 4.38526Z" fill="#6C757D"/>
<path d="M10.625 5.64355H4.375C4.20924 5.64355 4.05027 5.7094 3.93306 5.82661C3.81585 5.94382 3.75 6.10279 3.75 6.26855C3.75 6.43431 3.81585 6.59329 3.93306 6.7105C4.05027 6.82771 4.20924 6.89355 4.375 6.89355H10.625C10.7908 6.89355 10.9497 6.82771 11.0669 6.7105C11.1842 6.59329 11.25 6.43431 11.25 6.26855C11.25 6.10279 11.1842 5.94382 11.0669 5.82661C10.9497 5.7094 10.7908 5.64355 10.625 5.64355Z" fill="#6C757D"/>
<path d="M10.625 8.15186H4.375C4.20924 8.15186 4.05027 8.2177 3.93306 8.33491C3.81585 8.45212 3.75 8.6111 3.75 8.77686C3.75 8.94262 3.81585 9.10159 3.93306 9.2188C4.05027 9.33601 4.20924 9.40186 4.375 9.40186H10.625C10.7908 9.40186 10.9497 9.33601 11.0669 9.2188C11.1842 9.10159 11.25 8.94262 11.25 8.77686C11.25 8.6111 11.1842 8.45212 11.0669 8.33491C10.9497 8.2177 10.7908 8.15186 10.625 8.15186Z" fill="#6C757D"/>
</svg>
