<svg width="12" height="14" viewBox="0 0 12 14" fill="none" xmlns="http://www.w3.org/2000/svg">
<path d="M6.41666 11.6667C7.18993 11.6657 7.93125 11.3582 8.47803 10.8114C9.02481 10.2646 9.3324 9.52327 9.33333 8.75V3.64176C9.33423 3.33513 9.27427 3.03138 9.15691 2.7481C9.03956 2.46482 8.86714 2.20766 8.64966 1.99151L7.34183 0.683676C7.12568 0.466194 6.86851 0.293778 6.58523 0.176422C6.30196 0.0590653 5.9982 -0.000897138 5.69158 1.01439e-05H2.91666C2.1434 0.000936394 1.40207 0.308524 0.855294 0.855304C0.308514 1.40208 0.00092625 2.14341 0 2.91667V8.75C0.00092625 9.52327 0.308514 10.2646 0.855294 10.8114C1.40207 11.3582 2.1434 11.6657 2.91666 11.6667H6.41666ZM1.16667 8.75V2.91667C1.16667 2.45255 1.35104 2.00743 1.67923 1.67924C2.00742 1.35105 2.45254 1.16668 2.91666 1.16668C2.91666 1.16668 5.78608 1.17484 5.83333 1.18068V2.33334C5.83333 2.64276 5.95625 2.93951 6.17504 3.1583C6.39383 3.37709 6.69058 3.50001 6.99999 3.50001H8.15266C8.15849 3.54726 8.16666 8.75 8.16666 8.75C8.16666 9.21413 7.98229 9.65925 7.6541 9.98744C7.32591 10.3156 6.88079 10.5 6.41666 10.5H2.91666C2.45254 10.5 2.00742 10.3156 1.67923 9.98744C1.35104 9.65925 1.16667 9.21413 1.16667 8.75ZM11.6667 4.66667V11.0833C11.6657 11.8566 11.3581 12.5979 10.8114 13.1447C10.2646 13.6915 9.52326 13.9991 8.74999 14H3.5C3.34529 14 3.19691 13.9385 3.08752 13.8291C2.97812 13.7197 2.91666 13.5714 2.91666 13.4167C2.91666 13.262 2.97812 13.1136 3.08752 13.0042C3.19691 12.8948 3.34529 12.8333 3.5 12.8333H8.74999C9.21412 12.8333 9.65924 12.649 9.98743 12.3208C10.3156 11.9926 10.5 11.5475 10.5 11.0833V4.66667C10.5 4.51196 10.5615 4.36359 10.6708 4.25419C10.7802 4.1448 10.9286 4.08334 11.0833 4.08334C11.238 4.08334 11.3864 4.1448 11.4958 4.25419C11.6052 4.36359 11.6667 4.51196 11.6667 4.66667Z" fill="black"/>
</svg>
