<svg width="15" height="15" viewBox="0 0 15 15" fill="none" xmlns="http://www.w3.org/2000/svg">
<path d="M11.66 0.581234L4.04001 8.20123C3.74898 8.4907 3.51825 8.83502 3.36119 9.21426C3.20413 9.5935 3.12385 10.0001 3.12501 10.4106V11.25C3.12501 11.4157 3.19086 11.5747 3.30807 11.6919C3.42528 11.8091 3.58425 11.875 3.75001 11.875H4.58939C4.99986 11.8761 5.40649 11.7959 5.78574 11.6388C6.16498 11.4817 6.5093 11.251 6.79876 10.96L14.4188 3.33998C14.784 2.97384 14.9891 2.47778 14.9891 1.96061C14.9891 1.44344 14.784 0.947378 14.4188 0.581234C14.0473 0.226168 13.5532 0.0280151 13.0394 0.0280151C12.5255 0.0280151 12.0315 0.226168 11.66 0.581234ZM13.535 2.45623L5.91501 10.0762C5.56259 10.4265 5.08627 10.6237 4.58939 10.625H4.37501V10.4106C4.37631 9.91373 4.57349 9.43741 4.92376 9.08498L12.5438 1.46498C12.6773 1.33746 12.8548 1.26629 13.0394 1.26629C13.224 1.26629 13.4015 1.33746 13.535 1.46498C13.6662 1.59656 13.7399 1.77479 13.7399 1.96061C13.7399 2.14643 13.6662 2.32466 13.535 2.45623Z" fill="#00DAB0"/>
<path d="M14.375 5.61188C14.2092 5.61188 14.0503 5.67772 13.9331 5.79493C13.8158 5.91214 13.75 6.07112 13.75 6.23688V9.375H11.25C10.7527 9.375 10.2758 9.57255 9.92418 9.92418C9.57255 10.2758 9.375 10.7527 9.375 11.25V13.75H3.125C2.62772 13.75 2.15081 13.5525 1.79918 13.2008C1.44754 12.8492 1.25 12.3723 1.25 11.875V3.125C1.25 2.62772 1.44754 2.15081 1.79918 1.79918C2.15081 1.44754 2.62772 1.25 3.125 1.25H8.77625C8.94201 1.25 9.10098 1.18415 9.21819 1.06694C9.3354 0.949732 9.40125 0.79076 9.40125 0.625C9.40125 0.45924 9.3354 0.300269 9.21819 0.183058C9.10098 0.065848 8.94201 0 8.77625 0L3.125 0C2.2965 0.000992411 1.50222 0.330551 0.916387 0.916387C0.330551 1.50222 0.000992411 2.2965 0 3.125L0 11.875C0.000992411 12.7035 0.330551 13.4978 0.916387 14.0836C1.50222 14.6695 2.2965 14.999 3.125 15H10.2144C10.6249 15.0012 11.0317 14.9209 11.411 14.7638C11.7904 14.6068 12.1348 14.3761 12.4244 14.085L14.0844 12.4238C14.3755 12.1343 14.6063 11.79 14.7634 11.4108C14.9206 11.0315 15.001 10.6249 15 10.2144V6.23688C15 6.07112 14.9342 5.91214 14.8169 5.79493C14.6997 5.67772 14.5408 5.61188 14.375 5.61188ZM11.5406 13.2013C11.2894 13.4519 10.9717 13.6254 10.625 13.7013V11.25C10.625 11.0842 10.6908 10.9253 10.8081 10.8081C10.9253 10.6908 11.0842 10.625 11.25 10.625H13.7031C13.6258 10.9709 13.4525 11.2881 13.2031 11.54L11.5406 13.2013Z" fill="#00DAB0"/>
</svg>
