<svg width="18" height="16" viewBox="0 0 18 16" fill="none" xmlns="http://www.w3.org/2000/svg">
<path d="M13.8182 0H3.63636C2.67229 0.00115481 1.74804 0.384641 1.06634 1.06634C0.384641 1.74804 0.00115481 2.67229 0 3.63636L0 12.3636C0.00115481 13.3277 0.384641 14.252 1.06634 14.9337C1.74804 15.6154 2.67229 15.9988 3.63636 16H13.8182C14.7823 15.9988 15.7065 15.6154 16.3882 14.9337C17.0699 14.252 17.4534 13.3277 17.4545 12.3636V3.63636C17.4534 2.67229 17.0699 1.74804 16.3882 1.06634C15.7065 0.384641 14.7823 0.00115481 13.8182 0ZM3.63636 1.45455H13.8182C14.2537 1.4554 14.6789 1.58656 15.0392 1.83113C15.3996 2.0757 15.6784 2.42251 15.84 2.82691L10.2705 8.39709C9.86068 8.80532 9.30576 9.03452 8.72727 9.03452C8.14879 9.03452 7.59387 8.80532 7.184 8.39709L1.61455 2.82691C1.77611 2.42251 2.05499 2.0757 2.41531 1.83113C2.77562 1.58656 3.20088 1.4554 3.63636 1.45455ZM13.8182 14.5455H3.63636C3.05771 14.5455 2.50276 14.3156 2.09359 13.9064C1.68442 13.4972 1.45455 12.9423 1.45455 12.3636V4.72727L6.15564 9.42546C6.83827 10.1064 7.7631 10.4888 8.72727 10.4888C9.69145 10.4888 10.6163 10.1064 11.2989 9.42546L16 4.72727V12.3636C16 12.9423 15.7701 13.4972 15.361 13.9064C14.9518 14.3156 14.3968 14.5455 13.8182 14.5455Z" fill="black"/>
</svg>
