<svg width="17" height="18" viewBox="0 0 17 18" fill="none" xmlns="http://www.w3.org/2000/svg">
<path d="M8.5 11.4603C7.93962 11.4603 7.39182 11.2935 6.92588 10.9812C6.45995 10.6688 6.09679 10.2248 5.88234 9.7054C5.66789 9.18596 5.61178 8.61438 5.72111 8.06294C5.83043 7.51151 6.10028 7.00498 6.49653 6.60742C6.89278 6.20986 7.39763 5.93912 7.94724 5.82943C8.49686 5.71974 9.06655 5.77604 9.58427 5.9912C10.102 6.20635 10.5445 6.57071 10.8558 7.0382C11.1672 7.50568 11.3333 8.05529 11.3333 8.61753C11.3333 9.37147 11.0348 10.0945 10.5035 10.6276C9.97212 11.1608 9.25145 11.4603 8.5 11.4603ZM8.5 7.19617C8.21981 7.19617 7.94591 7.27953 7.71294 7.43571C7.47997 7.59189 7.29839 7.81388 7.19117 8.0736C7.08395 8.33332 7.05589 8.61911 7.11055 8.89482C7.16522 9.17054 7.30014 9.42381 7.49827 9.62259C7.69639 9.82137 7.94882 9.95674 8.22362 10.0116C8.49843 10.0664 8.78327 10.0383 9.04213 9.9307C9.301 9.82312 9.52225 9.64094 9.67791 9.4072C9.83358 9.17346 9.91667 8.89865 9.91667 8.61753C9.91667 8.24056 9.76741 7.87903 9.50173 7.61248C9.23606 7.34592 8.87572 7.19617 8.5 7.19617ZM12.75 16.435C12.75 15.3041 12.3022 14.2195 11.5052 13.4199C10.7082 12.6202 9.62717 12.1709 8.5 12.1709C7.37283 12.1709 6.29183 12.6202 5.4948 13.4199C4.69777 14.2195 4.25 15.3041 4.25 16.435C4.25 16.6235 4.32463 16.8043 4.45747 16.9376C4.5903 17.0708 4.77047 17.1457 4.95833 17.1457C5.14619 17.1457 5.32636 17.0708 5.4592 16.9376C5.59204 16.8043 5.66667 16.6235 5.66667 16.435C5.66667 15.6811 5.96518 14.958 6.49653 14.4249C7.02788 13.8918 7.74855 13.5923 8.5 13.5923C9.25145 13.5923 9.97212 13.8918 10.5035 14.4249C11.0348 14.958 11.3333 15.6811 11.3333 16.435C11.3333 16.6235 11.408 16.8043 11.5408 16.9376C11.6736 17.0708 11.8538 17.1457 12.0417 17.1457C12.2295 17.1457 12.4097 17.0708 12.5425 16.9376C12.6754 16.8043 12.75 16.6235 12.75 16.435ZM12.75 5.77481C12.1896 5.77481 11.6418 5.60808 11.1759 5.29572C10.7099 4.98336 10.3468 4.53939 10.1323 4.01995C9.91789 3.50051 9.86178 2.92893 9.97111 2.37749C10.0804 1.82606 10.3503 1.31953 10.7465 0.921972C11.1428 0.524409 11.6476 0.253666 12.1972 0.143979C12.7469 0.0342918 13.3165 0.0905872 13.8343 0.305746C14.352 0.520905 14.7945 0.885265 15.1058 1.35275C15.4172 1.82023 15.5833 2.36984 15.5833 2.93208C15.5833 3.68602 15.2848 4.40908 14.7535 4.94219C14.2221 5.47531 13.5014 5.77481 12.75 5.77481ZM12.75 1.51072C12.4698 1.51072 12.1959 1.59408 11.9629 1.75026C11.73 1.90644 11.5484 2.12843 11.4412 2.38815C11.3339 2.64787 11.3059 2.93366 11.3606 3.20938C11.4152 3.48509 11.5501 3.73836 11.7483 3.93714C11.9464 4.13592 12.1988 4.27129 12.4736 4.32613C12.7484 4.38098 13.0333 4.35283 13.2921 4.24525C13.551 4.13767 13.7722 3.95549 13.9279 3.72175C14.0836 3.48801 14.1667 3.2132 14.1667 2.93208C14.1667 2.55511 14.0174 2.19358 13.7517 1.92703C13.4861 1.66047 13.1257 1.51072 12.75 1.51072ZM17 10.7496C16.9989 9.61901 16.5507 8.53508 15.754 7.73566C14.9572 6.93623 13.8768 6.48662 12.75 6.48549C12.5621 6.48549 12.382 6.56036 12.2491 6.69364C12.1163 6.82692 12.0417 7.00768 12.0417 7.19617C12.0417 7.38465 12.1163 7.56542 12.2491 7.6987C12.382 7.83197 12.5621 7.90685 12.75 7.90685C13.5014 7.90685 14.2221 8.20635 14.7535 8.73946C15.2848 9.27258 15.5833 9.99564 15.5833 10.7496C15.5833 10.9381 15.658 11.1188 15.7908 11.2521C15.9236 11.3854 16.1038 11.4603 16.2917 11.4603C16.4795 11.4603 16.6597 11.3854 16.7925 11.2521C16.9254 11.1188 17 10.9381 17 10.7496ZM4.25 5.77481C3.68962 5.77481 3.14182 5.60808 2.67588 5.29572C2.20994 4.98336 1.84679 4.53939 1.63234 4.01995C1.41789 3.50051 1.36178 2.92893 1.47111 2.37749C1.58043 1.82606 1.85028 1.31953 2.24653 0.921972C2.64278 0.524409 3.14763 0.253666 3.69724 0.143979C4.24686 0.0342918 4.81655 0.0905872 5.33427 0.305746C5.85199 0.520905 6.2945 0.885265 6.60583 1.35275C6.91716 1.82023 7.08333 2.36984 7.08333 2.93208C7.08333 3.68602 6.78482 4.40908 6.25347 4.94219C5.72212 5.47531 5.00145 5.77481 4.25 5.77481ZM4.25 1.51072C3.96981 1.51072 3.69591 1.59408 3.46294 1.75026C3.22997 1.90644 3.04839 2.12843 2.94117 2.38815C2.83395 2.64787 2.80589 2.93366 2.86055 3.20938C2.91522 3.48509 3.05014 3.73836 3.24827 3.93714C3.44639 4.13592 3.69882 4.27129 3.97362 4.32613C4.24843 4.38098 4.53327 4.35283 4.79213 4.24525C5.051 4.13767 5.27225 3.95549 5.42792 3.72175C5.58358 3.48801 5.66667 3.2132 5.66667 2.93208C5.66667 2.55511 5.51741 2.19358 5.25173 1.92703C4.98606 1.66047 4.62572 1.51072 4.25 1.51072ZM1.41667 10.7496C1.41667 9.99564 1.71518 9.27258 2.24653 8.73946C2.77788 8.20635 3.49855 7.90685 4.25 7.90685C4.43786 7.90685 4.61803 7.83197 4.75087 7.6987C4.88371 7.56542 4.95833 7.38465 4.95833 7.19617C4.95833 7.00768 4.88371 6.82692 4.75087 6.69364C4.61803 6.56036 4.43786 6.48549 4.25 6.48549C3.12318 6.48662 2.04282 6.93623 1.24604 7.73566C0.449253 8.53508 0.00112514 9.61901 0 10.7496C0 10.9381 0.0746278 11.1188 0.207466 11.2521C0.340304 11.3854 0.520472 11.4603 0.708333 11.4603C0.896195 11.4603 1.07636 11.3854 1.2092 11.2521C1.34204 11.1188 1.41667 10.9381 1.41667 10.7496Z" fill="white"/>
</svg>
