<svg width="17" height="18" viewBox="0 0 17 18" fill="none" xmlns="http://www.w3.org/2000/svg">
<path d="M8.5 10.7456C7.3264 10.7456 6.375 11.7008 6.375 12.879V17.1457H10.625V12.879C10.625 11.7008 9.6736 10.7456 8.5 10.7456Z" fill="#00DAB0"/>
<path d="M12.0417 12.879V17.1457H14.875C16.0486 17.1457 17 16.1906 17 15.0123V8.52618C17.0002 8.15674 16.8572 7.80174 16.6012 7.5363L10.5818 1.00318C9.5197 -0.150509 7.72713 -0.221344 6.57797 0.844943C6.52339 0.89561 6.47079 0.948378 6.42036 1.00318L0.411553 7.53416C0.147854 7.8007 -9.95591e-05 8.16117 5.02639e-08 8.53685V15.0123C5.02639e-08 16.1906 0.951402 17.1457 2.125 17.1457H4.95832V12.879C4.97157 10.9399 6.53102 9.35636 8.41387 9.31076C10.3597 9.26363 12.0268 10.8741 12.0417 12.879Z" fill="#00DAB0"/>
<path d="M8.5 10.7456C7.3264 10.7456 6.375 11.7008 6.375 12.879V17.1457H10.625V12.879C10.625 11.7008 9.6736 10.7456 8.5 10.7456Z" fill="#00DAB0"/>
</svg>
