<svg width="17" height="18" viewBox="0 0 17 18" fill="none" xmlns="http://www.w3.org/2000/svg">
<path d="M16.3774 6.42387L11.0047 1.05046C10.3397 0.387448 9.43902 0.0151367 8.50001 0.0151367C7.561 0.0151367 6.6603 0.387448 5.99534 1.05046L0.622634 6.42387C0.424602 6.62064 0.267596 6.85475 0.160717 7.11265C0.0538385 7.37054 -0.000786534 7.64708 8.5563e-06 7.92625V14.88C8.5563e-06 15.4435 0.223892 15.984 0.622407 16.3826C1.02092 16.7811 1.56142 17.005 2.12501 17.005H14.875C15.4386 17.005 15.9791 16.7811 16.3776 16.3826C16.7761 15.984 17 15.4435 17 14.88V7.92625C17.0008 7.64708 16.9462 7.37054 16.8393 7.11265C16.7324 6.85475 16.5754 6.62064 16.3774 6.42387ZM10.625 15.5883H6.37501V12.8017C6.37501 12.2381 6.59889 11.6976 6.99741 11.2991C7.39592 10.9006 7.93642 10.6767 8.50001 10.6767C9.06359 10.6767 9.6041 10.9006 10.0026 11.2991C10.4011 11.6976 10.625 12.2381 10.625 12.8017V15.5883ZM15.5833 14.88C15.5833 15.0678 15.5087 15.248 15.3759 15.3808C15.243 15.5137 15.0629 15.5883 14.875 15.5883H12.0417V12.8017C12.0417 11.8624 11.6685 10.9616 11.0043 10.2974C10.3402 9.63318 9.43932 9.26004 8.50001 9.26004C7.5607 9.26004 6.65986 9.63318 5.99567 10.2974C5.33148 10.9616 4.95834 11.8624 4.95834 12.8017V15.5883H2.12501C1.93715 15.5883 1.75698 15.5137 1.62414 15.3808C1.4913 15.248 1.41668 15.0678 1.41668 14.88V7.92625C1.41733 7.73852 1.49189 7.55861 1.62422 7.42546L6.99693 2.05416C7.39621 1.65674 7.93665 1.43362 8.50001 1.43362C9.06337 1.43362 9.60381 1.65674 10.0031 2.05416L15.3758 7.42758C15.5076 7.56021 15.5821 7.73926 15.5833 7.92625V14.88Z" fill="white"/>
</svg>
