<svg width="18" height="15" viewBox="0 0 18 15" fill="none" xmlns="http://www.w3.org/2000/svg">
<path d="M9.84 0.545221L5.685 4.70022C5.4075 4.97772 5.25 5.36022 5.25 5.75772V13.2502C5.25 14.0752 5.925 14.7502 6.75 14.7502H13.5C14.1 14.7502 14.64 14.3902 14.88 13.8427L17.325 8.13522C17.955 6.65022 16.8675 5.00022 15.255 5.00022H11.0175L11.73 1.56522C11.805 1.19022 11.6925 0.807721 11.4225 0.537721C10.98 0.102721 10.275 0.102721 9.84 0.545221ZM2.25 14.7502C3.075 14.7502 3.75 14.0752 3.75 13.2502V7.25022C3.75 6.42522 3.075 5.75022 2.25 5.75022C1.425 5.75022 0.75 6.42522 0.75 7.25022V13.2502C0.75 14.0752 1.425 14.7502 2.25 14.7502Z" fill="#0099FF"/>
</svg>
