<svg width="15" height="18" viewBox="0 0 15 18" fill="none" xmlns="http://www.w3.org/2000/svg">
<path d="M12.75 6.318V5.25C12.75 3.85761 12.1969 2.52226 11.2123 1.53769C10.2277 0.553124 8.89239 0 7.5 0C6.10761 0 4.77226 0.553124 3.78769 1.53769C2.80312 2.52226 2.25 3.85761 2.25 5.25V6.318C1.58202 6.60953 1.01347 7.08939 0.613874 7.69891C0.214279 8.30842 0.000958782 9.02118 0 9.75V14.25C0.00119089 15.2442 0.396662 16.1973 1.09967 16.9003C1.80267 17.6033 2.7558 17.9988 3.75 18H11.25C12.2442 17.9988 13.1973 17.6033 13.9003 16.9003C14.6033 16.1973 14.9988 15.2442 15 14.25V9.75C14.999 9.02118 14.7857 8.30842 14.3861 7.69891C13.9865 7.08939 13.418 6.60953 12.75 6.318ZM3.75 5.25C3.75 4.25544 4.14509 3.30161 4.84835 2.59835C5.55161 1.89509 6.50544 1.5 7.5 1.5C8.49456 1.5 9.44839 1.89509 10.1517 2.59835C10.8549 3.30161 11.25 4.25544 11.25 5.25V6H3.75V5.25ZM13.5 14.25C13.5 14.8467 13.2629 15.419 12.841 15.841C12.419 16.2629 11.8467 16.5 11.25 16.5H3.75C3.15326 16.5 2.58097 16.2629 2.15901 15.841C1.73705 15.419 1.5 14.8467 1.5 14.25V9.75C1.5 9.15326 1.73705 8.58097 2.15901 8.15901C2.58097 7.73705 3.15326 7.5 3.75 7.5H11.25C11.8467 7.5 12.419 7.73705 12.841 8.15901C13.2629 8.58097 13.5 9.15326 13.5 9.75V14.25Z" fill="black"/>
<path d="M7.5 10.5C7.30109 10.5 7.11032 10.579 6.96967 10.7197C6.82902 10.8603 6.75 11.0511 6.75 11.25V12.75C6.75 12.9489 6.82902 13.1397 6.96967 13.2803C7.11032 13.421 7.30109 13.5 7.5 13.5C7.69891 13.5 7.88968 13.421 8.03033 13.2803C8.17098 13.1397 8.25 12.9489 8.25 12.75V11.25C8.25 11.0511 8.17098 10.8603 8.03033 10.7197C7.88968 10.579 7.69891 10.5 7.5 10.5Z" fill="black"/>
</svg>
