<svg width="14" height="14" viewBox="0 0 14 14" fill="none" xmlns="http://www.w3.org/2000/svg">
<path d="M9.95625 9.84375C9.83125 9.71875 9.76875 9.56563 9.76875 9.38437C9.76875 9.20312 9.83125 9.05 9.95625 8.925L11.3813 7.5H5.53125C5.35625 7.5 5.20625 7.4375 5.08125 7.3125C4.95625 7.1875 4.89375 7.0375 4.89375 6.8625C4.89375 6.675 4.95625 6.52187 5.08125 6.40312C5.20625 6.28437 5.35625 6.225 5.53125 6.225H11.3438L9.9 4.78125C9.7875 4.66875 9.73125 4.525 9.73125 4.35C9.73125 4.175 9.79375 4.01875 9.91875 3.88125C10.0438 3.75625 10.1969 3.69375 10.3781 3.69375C10.5594 3.69375 10.7125 3.75625 10.8375 3.88125L13.3875 6.43125C13.45 6.50625 13.4969 6.58125 13.5281 6.65625C13.5594 6.73125 13.575 6.80625 13.575 6.88125C13.575 6.96875 13.5594 7.04687 13.5281 7.11562C13.4969 7.18437 13.45 7.25625 13.3875 7.33125L10.8563 9.8625C10.7438 9.975 10.6 10.0312 10.425 10.0312C10.25 10.0312 10.0938 9.96875 9.95625 9.84375ZM1.29375 13.725C0.94375 13.725 0.640625 13.5969 0.384375 13.3406C0.128125 13.0844 0 12.7875 0 12.45V1.275C0 0.925 0.128125 0.625 0.384375 0.375C0.640625 0.125 0.94375 0 1.29375 0H6.13125C6.31875 0 6.47188 0.0625 6.59063 0.1875C6.70938 0.3125 6.76875 0.4625 6.76875 0.6375C6.76875 0.825 6.70938 0.978125 6.59063 1.09687C6.47188 1.21562 6.31875 1.275 6.13125 1.275H1.29375V12.45H6.13125C6.31875 12.45 6.47188 12.5125 6.59063 12.6375C6.70938 12.7625 6.76875 12.9125 6.76875 13.0875C6.76875 13.275 6.70938 13.4281 6.59063 13.5469C6.47188 13.6656 6.31875 13.725 6.13125 13.725H1.29375Z" fill="#EB4335"/>
</svg>
