<svg width="17" height="19" viewBox="0 0 17 19" fill="none" xmlns="http://www.w3.org/2000/svg">
<path d="M2.2494 13.6307H13.9914C14.3528 13.6307 14.7088 13.5434 15.0295 13.3761C15.3501 13.2088 15.6258 12.9665 15.8334 12.6697C16.0409 12.3729 16.1742 12.0303 16.2218 11.6709C16.2695 11.3115 16.2301 10.9459 16.1071 10.6049L13.9681 4.67158C13.6028 3.35301 12.8171 2.19078 11.7311 1.36266C10.6451 0.534532 9.31869 0.0860971 7.95465 0.0859375V0.0859375C6.53469 0.0859152 5.15718 0.571733 4.04956 1.46318C2.94193 2.35463 2.17042 3.59839 1.8624 4.98913L0.0998999 10.708C-0.00387018 11.0457 -0.0271987 11.403 0.0317914 11.7514C0.0907815 12.0997 0.230443 12.4293 0.439539 12.7136C0.648634 12.9979 0.921325 13.229 1.23567 13.3883C1.55002 13.5476 1.89724 13.6306 2.2494 13.6307Z" fill="white"/>
<path d="M4.52344 15.1357C4.69557 15.9863 5.15548 16.7509 5.82524 17.3002C6.495 17.8494 7.33341 18.1495 8.19843 18.1495C9.06344 18.1495 9.90185 17.8494 10.5716 17.3002C11.2414 16.7509 11.7013 15.9863 11.8734 15.1357H4.52344Z" fill="white"/>
</svg>
