<svg width="92" height="52" viewBox="0 0 92 52" fill="none" xmlns="http://www.w3.org/2000/svg">
<g clip-path="url(#clip0_2_11531)">
<path d="M83.267 3.9124C85.783 13.3366 88.2952 22.7462 90.8113 32.1704C90.7909 32.2226 90.7705 32.2748 90.7821 32.3184C90.7288 35.0747 89.3375 36.7393 86.4387 37.5133C74.0109 40.8312 61.599 44.1449 49.1712 47.4628C46.2244 48.2496 43.2975 49.0466 40.3429 49.8042C38.4492 50.2942 36.7701 49.9168 35.4291 48.6856C34.9768 48.2766 34.6934 47.7291 34.3216 47.2363C31.8094 37.8267 29.2973 28.417 26.7812 18.9928C26.7856 18.9449 26.806 18.8928 26.8103 18.8449C26.9083 15.9987 28.255 14.4239 31.2659 13.6201C43.2453 10.4218 55.2247 7.2236 67.2041 4.02536C70.5513 3.13174 73.8907 2.20903 77.2335 1.36331C79.3354 0.817733 81.1214 1.33805 82.4803 2.82928C82.8016 3.13301 83.0141 3.54366 83.267 3.9124ZM77.2875 4.71421C77.2477 4.69368 77.22 4.65432 77.1802 4.63379C62.254 8.61875 47.3438 12.5994 32.4176 16.5844C32.5321 16.7564 32.6996 16.8052 32.8549 16.8728C41.3353 21.2614 49.8357 25.6603 58.32 30.0634C59.6371 30.7556 60.6781 30.4777 61.475 29.2211C65.1836 23.4479 68.9044 17.6558 72.6131 11.8826C74.134 9.48231 75.7107 7.09826 77.2875 4.71421ZM40.304 46.5739C55.3424 42.559 70.2686 38.5741 85.2909 34.5635C79.369 31.5327 73.5345 28.5722 67.6724 25.5723C67.5836 25.6895 67.4744 25.8588 67.3613 26.0137C66.3179 27.6321 65.2944 29.2608 64.235 30.8836C62.5971 33.4242 59.3742 34.269 56.6918 32.8974C55.6571 32.3635 54.6224 31.8296 53.5877 31.2957C52.7321 30.8541 51.8765 30.4126 51.0646 30.0062C47.4899 35.51 43.9273 40.9949 40.304 46.5739ZM37.28 44.9508C40.8465 39.4804 44.4333 33.9578 48.0362 28.431C42.174 25.431 36.3119 22.4311 30.4735 19.456C32.741 27.9494 35.0241 36.501 37.28 44.9508ZM87.0952 31.6824C84.8354 23.2181 82.5485 14.652 80.2926 6.2022C76.7261 11.6726 73.1354 17.1806 69.5364 22.722C75.4146 25.7177 81.2767 28.7176 87.0952 31.6824Z" fill="#00DAB0"/>
</g>
<rect width="10.3047" height="3.99" rx="1.995" transform="matrix(0.97572 -0.21902 0.247652 0.968849 7.61523 27.4469)" fill="#00DAB0"/>
<rect width="9.2941" height="3.99" rx="1.995" transform="matrix(0.97572 -0.21902 0.247652 0.968849 0 40.072)" fill="#00DAB0"/>
<rect width="13.225" height="3.98657" rx="1.99329" transform="matrix(0.97572 -0.21902 0.247652 0.968849 12.4364 45.631)" fill="#00DAB0"/>
<defs>
<clipPath id="clip0_2_11531">
<rect width="58.4642" height="37.3462" fill="white" transform="translate(25.7367 15.0804) rotate(-14.9481)"/>
</clipPath>
</defs>
</svg>
