<svg width="12" height="18" viewBox="0 0 12 18" fill="none" xmlns="http://www.w3.org/2000/svg">
<path d="M8.25 0H3.75C2.7558 0.00119089 1.80267 0.396661 1.09966 1.09966C0.396661 1.80267 0.00119089 2.7558 0 3.75V14.25C0.00119089 15.2442 0.396661 16.1973 1.09966 16.9003C1.80267 17.6033 2.7558 17.9988 3.75 18H8.25C9.2442 17.9988 10.1973 17.6033 10.9003 16.9003C11.6033 16.1973 11.9988 15.2442 12 14.25V3.75C11.9988 2.7558 11.6033 1.80267 10.9003 1.09966C10.1973 0.396661 9.2442 0.00119089 8.25 0V0ZM3.75 1.5H8.25C8.84674 1.5 9.41903 1.73705 9.84099 2.15901C10.2629 2.58097 10.5 3.15326 10.5 3.75V12H1.5V3.75C1.5 3.15326 1.73705 2.58097 2.15901 2.15901C2.58097 1.73705 3.15326 1.5 3.75 1.5ZM8.25 16.5H3.75C3.15326 16.5 2.58097 16.2629 2.15901 15.841C1.73705 15.419 1.5 14.8467 1.5 14.25V13.5H10.5V14.25C10.5 14.8467 10.2629 15.419 9.84099 15.841C9.41903 16.2629 8.84674 16.5 8.25 16.5Z" fill="black"/>
<path d="M6 15.75C6.41421 15.75 6.75 15.4142 6.75 15C6.75 14.5858 6.41421 14.25 6 14.25C5.58579 14.25 5.25 14.5858 5.25 15C5.25 15.4142 5.58579 15.75 6 15.75Z" fill="black"/>
</svg>
