<svg width="16" height="16" viewBox="0 0 16 16" fill="none" xmlns="http://www.w3.org/2000/svg">
<path d="M8 0C6.41775 0 4.87103 0.469192 3.55544 1.34824C2.23985 2.22729 1.21447 3.47672 0.608967 4.93853C0.00346629 6.40034 -0.15496 8.00887 0.153721 9.56072C0.462403 11.1126 1.22433 12.538 2.34315 13.6569C3.46197 14.7757 4.88743 15.5376 6.43928 15.8463C7.99113 16.155 9.59966 15.9965 11.0615 15.391C12.5233 14.7855 13.7727 13.7602 14.6518 12.4446C15.5308 11.129 16 9.58225 16 8C15.9977 5.87897 15.1541 3.84547 13.6543 2.34568C12.1545 0.845885 10.121 0.00229405 8 0V0ZM8.33333 13.9833V13.1267C8.33333 12.3858 8.03904 11.6753 7.51519 11.1515C6.99134 10.6276 6.28084 10.3333 5.54 10.3333H5.53334C5.25809 10.3333 4.98554 10.2791 4.73125 10.1738C4.47696 10.0684 4.24593 9.914 4.05134 9.71933L2.016 7.68267C2.07037 6.62356 2.40494 5.59788 2.98553 4.71043C3.56611 3.82298 4.3719 3.10557 5.32054 2.63152C6.26919 2.15747 7.32668 1.94377 8.38496 2.01226C9.44324 2.08075 10.4644 2.42896 11.344 3.02133C11.1675 3.15088 10.9543 3.22093 10.7353 3.22133H9.77934C9.64303 3.22133 9.50806 3.24821 9.38216 3.30044C9.25625 3.35266 9.14188 3.4292 9.04559 3.52567C8.9493 3.62215 8.87298 3.73666 8.821 3.86267C8.76903 3.98868 8.74241 4.12369 8.74267 4.26V4.95467C8.74267 5.22961 8.63345 5.49329 8.43904 5.6877C8.24462 5.88211 7.98094 5.99133 7.706 5.99133C7.56964 5.99098 7.43455 6.01754 7.30847 6.06948C7.18239 6.12142 7.06779 6.19772 6.97124 6.29402C6.8747 6.39032 6.7981 6.50472 6.74583 6.63067C6.69357 6.75662 6.66667 6.89164 6.66667 7.028V7.72267C6.66667 7.99761 6.77589 8.26129 6.9703 8.4557C7.16471 8.65011 7.42839 8.75933 7.70334 8.75933H10.474C10.7489 8.75933 11.0126 8.86855 11.207 9.06296C11.4014 9.25738 11.5107 9.52106 11.5107 9.796V10.8093C11.5107 10.9455 11.5375 11.0804 11.5897 11.2063C11.6419 11.3321 11.7183 11.4464 11.8147 11.5427L12.37 12.098C11.3178 13.2233 9.87161 13.8987 8.33333 13.9833Z" fill="#6C757D"/>
</svg>
