<svg width="14" height="15" viewBox="0 0 14 15" fill="none" xmlns="http://www.w3.org/2000/svg">
<path d="M6.3 11.2373H7.7V9.8326H6.3V11.2373ZM7 0C3.136 0 0 3.14643 0 7.02328C0 10.9001 3.136 14.0466 7 14.0466C10.864 14.0466 14 10.9001 14 7.02328C14 3.14643 10.864 0 7 0ZM7 12.6419C3.913 12.6419 1.4 10.1206 1.4 7.02328C1.4 3.92602 3.913 1.40466 7 1.40466C10.087 1.40466 12.6 3.92602 12.6 7.02328C12.6 10.1206 10.087 12.6419 7 12.6419ZM7 2.80931C5.453 2.80931 4.2 4.06648 4.2 5.61863H5.6C5.6 4.84607 6.23 4.21397 7 4.21397C7.77 4.21397 8.4 4.84607 8.4 5.61863C8.4 7.02328 6.3 6.8477 6.3 9.13027H7.7C7.7 7.55003 9.8 7.37445 9.8 5.61863C9.8 4.06648 8.547 2.80931 7 2.80931Z" fill="#00DAB0"/>
</svg>
