<svg width="14" height="14" viewBox="0 0 14 14" fill="none" xmlns="http://www.w3.org/2000/svg">
<path d="M4.13793 7.53448H9.87931C10.0402 7.53448 10.1753 7.47701 10.2845 7.36207C10.3937 7.24713 10.4483 7.1092 10.4483 6.94828C10.4483 6.77586 10.3937 6.63506 10.2845 6.52586C10.1753 6.41667 10.0345 6.36207 9.86207 6.36207H4.12069C3.95977 6.36207 3.82471 6.41954 3.71552 6.53448C3.60632 6.64943 3.55172 6.78736 3.55172 6.94828C3.55172 7.12069 3.60632 7.26149 3.71552 7.37069C3.82471 7.47989 3.96552 7.53448 4.13793 7.53448ZM7 14C6.01149 14 5.08908 13.8218 4.23276 13.4655C3.37644 13.1092 2.63506 12.6178 2.00862 11.9914C1.38218 11.3649 0.890805 10.6236 0.534483 9.76724C0.178161 8.91092 0 7.98851 0 7C0 6.02299 0.178161 5.10632 0.534483 4.25C0.890805 3.39368 1.38218 2.6523 2.00862 2.02586C2.63506 1.39943 3.37644 0.905172 4.23276 0.543103C5.08908 0.181035 6.01149 0 7 0C7.97701 0 8.89368 0.181035 9.75 0.543103C10.6063 0.905172 11.3477 1.39943 11.9741 2.02586C12.6006 2.6523 13.0948 3.3908 13.4569 4.24138C13.819 5.09195 14 6.01149 14 7C14 7.98851 13.819 8.91092 13.4569 9.76724C13.0948 10.6236 12.6006 11.3649 11.9741 11.9914C11.3477 12.6178 10.6063 13.1092 9.75 13.4655C8.89368 13.8218 7.97701 14 7 14ZM7 12.8276C8.65517 12.8276 10.0402 12.2701 11.1552 11.1552C12.2701 10.0402 12.8276 8.65517 12.8276 7C12.8276 5.34483 12.2701 3.95977 11.1552 2.84483C10.0402 1.72989 8.65517 1.17241 7 1.17241C5.34483 1.17241 3.95977 1.72989 2.84483 2.84483C1.72989 3.95977 1.17241 5.34483 1.17241 7C1.17241 8.65517 1.72989 10.0402 2.84483 11.1552C3.95977 12.2701 5.34483 12.8276 7 12.8276Z" fill="black"/>
</svg>
