<svg width="17" height="10" viewBox="0 0 17 10" fill="none" xmlns="http://www.w3.org/2000/svg">
<path d="M8.47818 10C8.32847 10 8.19124 9.97423 8.06649 9.92269C7.94173 9.87115 7.81698 9.78095 7.69222 9.6521L0.281799 1.99832C0.0821913 1.79216 -0.0113747 1.51513 0.00110078 1.16723C0.0135762 0.819328 0.119618 0.542296 0.319225 0.336134C0.568734 0.0784308 0.836957 -0.0310924 1.12389 0.00756305C1.41083 0.0462185 1.66657 0.168628 1.89113 0.37479L8.47818 7.17815L15.0652 0.37479C15.2648 0.168628 15.533 0.0526608 15.8699 0.0268905C16.2067 0.00112018 16.4749 0.117087 16.6746 0.37479C16.9241 0.580953 17.0301 0.85154 16.9927 1.18655C16.9553 1.52157 16.8367 1.80504 16.6371 2.03697L9.26413 9.6521C9.13937 9.78095 9.01462 9.87115 8.88987 9.92269C8.76511 9.97423 8.62788 10 8.47818 10Z" fill="#6C757D"/>
</svg>
