<svg width="18" height="19" viewBox="0 0 18 19" fill="none" xmlns="http://www.w3.org/2000/svg">
<path d="M0 2.26566C0 2.08745 0 1.91432 0 1.7361C0.065918 1.52224 0.105469 1.2931 0.197754 1.08943C0.624023 0.132141 1.55566 -0.249754 2.44336 0.167785C3.14209 0.493669 3.84082 0.834829 4.53516 1.1709C8.63525 3.14148 12.731 5.11206 16.8311 7.08264C17.1738 7.24558 17.4902 7.45944 17.6792 7.83625C17.8154 8.10612 17.8945 8.41673 18 8.70697C18 8.89537 18 9.08887 18 9.27727C17.9912 9.29254 17.978 9.31291 17.9736 9.32819C17.8462 10.1225 17.4287 10.6114 16.7959 10.9169C12.7969 12.8314 8.80225 14.7562 4.80762 16.6809C3.95947 17.0883 3.12012 17.516 2.25879 17.8826C1.62158 18.1525 1.03711 17.9539 0.536133 17.4295C0.237305 17.1036 0.0922851 16.6911 0 16.243C0 16.0648 0 15.8917 0 15.7135C0.00878906 15.7033 0.0175781 15.6931 0.0219727 15.6829C0.263672 14.5729 0.500977 13.4628 0.742676 12.3528C0.94043 11.4413 1.14258 10.5299 1.34912 9.60315C1.42383 9.60315 1.49414 9.60315 1.56445 9.60315C3.55078 9.60315 5.53711 9.60315 7.51904 9.60315C7.58496 9.60315 7.64648 9.60824 7.7124 9.59806C8.00244 9.56751 8.20459 9.30273 8.2002 8.97175C8.19141 8.61531 7.96289 8.38109 7.60693 8.38109C5.59424 8.38109 3.57715 8.38109 1.56445 8.38109C1.49414 8.38109 1.42383 8.38109 1.35791 8.38109C1.34033 8.31489 1.32275 8.26397 1.31396 8.21305C1.0415 6.97062 0.769043 5.73328 0.496582 4.49084C0.32959 3.74742 0.162598 3.00909 0 2.26566Z" fill="white"/>
</svg>
