<svg width="15" height="16" viewBox="0 0 15 16" fill="none" xmlns="http://www.w3.org/2000/svg">
<path d="M13.2305 8.26228C13.2614 8.02148 13.2845 7.78069 13.2845 7.52484C13.2845 7.269 13.2614 7.0282 13.2305 6.78741L14.8574 5.54581C15.0039 5.43294 15.0425 5.22976 14.9499 5.06422L13.4079 2.46062C13.3385 2.34023 13.2074 2.2725 13.0686 2.2725C13.0223 2.2725 12.9761 2.28003 12.9375 2.29508L11.0176 3.04756C10.6167 2.74657 10.1849 2.49825 9.71459 2.31013L9.42159 0.316043C9.39846 0.135447 9.23654 0 9.04378 0H5.95962C5.76686 0 5.60494 0.135447 5.58181 0.316043L5.28882 2.31013C4.81848 2.49825 4.3867 2.75409 3.98576 3.04756L2.06587 2.29508C2.01961 2.28003 1.97335 2.2725 1.92708 2.2725C1.79601 2.2725 1.66493 2.34023 1.59554 2.46062L0.0534574 5.06422C-0.0467778 5.22976 -0.000515288 5.43294 0.145982 5.54581L1.77288 6.78741C1.74204 7.0282 1.7189 7.27652 1.7189 7.52484C1.7189 7.77316 1.74204 8.02148 1.77288 8.26228L0.145982 9.50387C-0.000515288 9.61675 -0.0390674 9.81992 0.0534574 9.98547L1.59554 12.5891C1.66493 12.7095 1.79601 12.7772 1.9348 12.7772C1.98106 12.7772 2.02732 12.7697 2.06587 12.7546L3.98576 12.0021C4.3867 12.3031 4.81848 12.5514 5.28882 12.7396L5.58181 14.7336C5.60494 14.9142 5.76686 15.0497 5.95962 15.0497H9.04378C9.23654 15.0497 9.39846 14.9142 9.42159 14.7336L9.71459 12.7396C10.1849 12.5514 10.6167 12.2956 11.0176 12.0021L12.9375 12.7546C12.9838 12.7697 13.0301 12.7772 13.0763 12.7772C13.2074 12.7772 13.3385 12.7095 13.4079 12.5891L14.9499 9.98547C15.0425 9.81992 15.0039 9.61675 14.8574 9.50387L13.2305 8.26228ZM11.7039 6.97553C11.7347 7.2088 11.7424 7.36682 11.7424 7.52484C11.7424 7.68286 11.727 7.84841 11.7039 8.07415L11.5959 8.92446L12.2822 9.4512L13.1149 10.0833L12.5751 10.9938L11.5959 10.61L10.794 10.294L10.1001 10.8057C9.76856 11.0465 9.45243 11.2271 9.13631 11.355L8.31901 11.6786L8.19564 12.5289L8.04143 13.5447H6.96198L6.81548 12.5289L6.69211 11.6786L5.87481 11.355C5.54326 11.2195 5.23485 11.0465 4.92643 10.8207L4.22478 10.294L3.40748 10.6176L2.42826 11.0013L1.88853 10.0908L2.72126 9.45872L3.40748 8.93199L3.29954 8.08168C3.2764 7.84841 3.26098 7.67534 3.26098 7.52484C3.26098 7.37434 3.2764 7.20127 3.29954 6.97553L3.40748 6.12522L2.72126 5.59848L1.88853 4.9664L2.42826 4.05589L3.40748 4.43966L4.20936 4.7557L4.9033 4.24401C5.23485 4.00322 5.55097 3.82262 5.8671 3.6947L6.6844 3.37113L6.80777 2.52082L6.96198 1.50497H8.03372L8.18022 2.52082L8.30359 3.37113L9.12089 3.6947C9.45243 3.83014 9.76085 4.00322 10.0693 4.22896L10.7709 4.7557L11.5882 4.43213L12.5674 4.04836L13.1072 4.95887L12.2822 5.59848L11.5959 6.12522L11.7039 6.97553ZM7.5017 4.5149C5.79771 4.5149 4.41754 5.86185 4.41754 7.52484C4.41754 9.18783 5.79771 10.5348 7.5017 10.5348C9.2057 10.5348 10.5859 9.18783 10.5859 7.52484C10.5859 5.86185 9.2057 4.5149 7.5017 4.5149ZM7.5017 9.02981C6.65356 9.02981 5.95962 8.35257 5.95962 7.52484C5.95962 6.69711 6.65356 6.01987 7.5017 6.01987C8.34985 6.01987 9.04378 6.69711 9.04378 7.52484C9.04378 8.35257 8.34985 9.02981 7.5017 9.02981Z" fill="#00DAB0"/>
</svg>
