<svg width="16" height="16" viewBox="0 0 16 16" fill="none" xmlns="http://www.w3.org/2000/svg">
<path d="M12.0997 9.1974C11.6272 9.19778 11.1618 9.31353 10.7438 9.53465C10.3258 9.75576 9.96764 10.0756 9.70034 10.4666L5.63221 8.62363C5.92116 7.92359 5.92228 7.13728 5.63534 6.43641L9.69784 4.58404C10.094 5.15891 10.6824 5.57228 11.3563 5.74917C12.0302 5.92605 12.745 5.85474 13.371 5.54816C13.997 5.24158 14.4928 4.72005 14.7684 4.07816C15.0439 3.43627 15.0811 2.71654 14.8731 2.04953C14.665 1.38252 14.2256 0.812397 13.6345 0.442588C13.0434 0.0727787 12.3398 -0.072226 11.6513 0.0338766C10.9628 0.139979 10.335 0.490161 9.88173 1.0209C9.4285 1.55164 9.17988 2.22779 9.18096 2.92669C9.18361 3.09211 9.20034 3.25701 9.23096 3.41957L4.91221 5.38857C4.49743 4.99867 3.97816 4.73882 3.4182 4.64095C2.85824 4.54308 2.28198 4.61145 1.76022 4.83766C1.23846 5.06387 0.793918 5.43807 0.481212 5.91428C0.168507 6.3905 0.00125589 6.94799 7.04511e-06 7.51826C-0.0012418 8.08853 0.163566 8.64675 0.474183 9.12434C0.784799 9.60193 1.2277 9.97808 1.74846 10.2066C2.26923 10.4351 2.84518 10.506 3.40556 10.4106C3.96594 10.3152 4.48635 10.0577 4.90284 9.66958L9.23284 11.6311C9.20276 11.7935 9.18624 11.9581 9.18346 12.1233C9.18334 12.7022 9.35432 13.2681 9.67478 13.7494C9.99525 14.2308 10.4508 14.606 10.9838 14.8276C11.5168 15.0492 12.1034 15.1072 12.6692 14.9943C13.2351 14.8814 13.7549 14.6026 14.1629 14.1933C14.5708 13.784 14.8487 13.2625 14.9612 12.6947C15.0737 12.127 15.0159 11.5385 14.7951 11.0037C14.5742 10.4689 14.2002 10.0119 13.7205 9.69035C13.2407 9.36882 12.6767 9.19727 12.0997 9.1974ZM12.0997 1.2543C12.4294 1.25417 12.7517 1.35215 13.0259 1.53584C13.3001 1.71953 13.5139 1.98068 13.6401 2.28626C13.7664 2.59184 13.7995 2.92812 13.7353 3.25258C13.671 3.57703 13.5123 3.87508 13.2792 4.10903C13.0461 4.34299 12.7491 4.50233 12.4258 4.56691C12.1024 4.63149 11.7672 4.59841 11.4626 4.47185C11.158 4.34529 10.8976 4.13093 10.7144 3.85589C10.5312 3.58085 10.4335 3.25749 10.4335 2.92669C10.4338 2.48336 10.6094 2.05826 10.9218 1.74472C11.2342 1.43117 11.6578 1.25479 12.0997 1.2543ZM2.93346 9.1974C2.60376 9.19752 2.28143 9.09954 2.00723 8.91585C1.73303 8.73216 1.51928 8.47101 1.39303 8.16543C1.26677 7.85986 1.23367 7.52357 1.29792 7.19912C1.36216 6.87466 1.52087 6.57661 1.75396 6.34266C1.98705 6.10871 2.28406 5.94937 2.60742 5.88479C2.93078 5.8202 3.26596 5.85329 3.57058 5.97985C3.8752 6.10641 4.13556 6.32076 4.31875 6.5958C4.50194 6.87084 4.59971 7.19421 4.59971 7.525C4.59922 7.96829 4.42353 8.39328 4.11117 8.70679C3.79881 9.0203 3.37529 9.19673 2.93346 9.1974ZM12.0997 13.7957C11.77 13.7957 11.4478 13.6976 11.1736 13.5139C10.8995 13.3301 10.6859 13.0689 10.5597 12.7633C10.4336 12.4577 10.4005 12.1215 10.4649 11.797C10.5292 11.4726 10.6879 11.1746 10.9211 10.9407C11.1542 10.7069 11.4512 10.5476 11.7745 10.483C12.0979 10.4185 12.433 10.4516 12.7376 10.5782C13.0422 10.7048 13.3025 10.9192 13.4857 11.1942C13.6688 11.4692 13.7666 11.7925 13.7666 12.1233C13.7663 12.5668 13.5905 12.9919 13.278 13.3055C12.9655 13.6191 12.5417 13.7954 12.0997 13.7957Z" fill="#6C757D"/>
</svg>
