<svg width="13" height="13" viewBox="0 0 13 13" fill="none" xmlns="http://www.w3.org/2000/svg">
<path d="M3.31155 10.2652L1.49386 9.90772C1.37063 9.87793 1.27057 9.81584 1.19368 9.72146C1.11654 9.62708 1.08832 9.52031 1.10903 9.40114L1.30902 7.65832L0.123102 6.3327C0.0410339 6.24333 0 6.13906 0 6.01989C0 5.90072 0.0410339 5.79645 0.123102 5.70708L1.30902 4.39612L1.10903 2.6533C1.08832 2.53413 1.11654 2.42497 1.19368 2.32583C1.27057 2.22644 1.37063 2.16686 1.49386 2.14708L3.31155 1.77456L4.25127 0.240163C4.31288 0.131006 4.40271 0.0590288 4.52076 0.024232C4.63881 -0.0105648 4.75427 -0.00305729 4.86714 0.0467546L6.5 0.761757L8.13286 0.0467546C8.24573 -0.00305729 8.36378 -0.0130674 8.487 0.0167244C8.61023 0.0465162 8.69747 0.11611 8.74873 0.225505L9.68845 1.77456L11.5061 2.14708C11.6294 2.16686 11.7294 2.22644 11.8063 2.32583C11.8835 2.42497 11.9117 2.53413 11.891 2.6533L11.691 4.39612L12.8769 5.70708C12.959 5.79645 13 5.90072 13 6.01989C13 6.13906 12.959 6.24333 12.8769 6.3327L11.691 7.65832L11.891 9.40114C11.9117 9.52031 11.8835 9.62708 11.8063 9.72146C11.7294 9.81584 11.6294 9.87793 11.5061 9.90772L9.68845 10.2652L8.74873 11.8143C8.69747 11.9237 8.61023 11.9933 8.487 12.0231C8.36378 12.0528 8.24573 12.0428 8.13286 11.993L6.5 11.278L4.86714 11.993C4.75427 12.0428 4.63881 12.0503 4.52076 12.0155C4.40271 11.9808 4.31288 11.9088 4.25127 11.7996L3.31155 10.2652ZM5.51408 7.67333C5.60649 7.76271 5.71949 7.8074 5.85307 7.8074C5.98664 7.8074 6.09964 7.76271 6.19206 7.67333L8.9491 5.02175C9.03117 4.94238 9.0722 4.83561 9.0722 4.70142C9.0722 4.56748 9.02094 4.45582 8.91842 4.36645C8.81565 4.27707 8.69747 4.23238 8.5639 4.23238C8.43057 4.23238 8.31252 4.28207 8.20975 4.38146L5.85307 6.64552L4.79025 5.57301C4.69783 5.48364 4.57978 5.43895 4.4361 5.43895C4.29218 5.43895 4.174 5.48864 4.08158 5.58803C3.97906 5.69719 3.9278 5.81874 3.9278 5.95268C3.9278 6.08686 3.97906 6.19864 4.08158 6.28802L5.51408 7.67333Z" fill="#0099FF"/>
</svg>
